<svg xmlns="http://www.w3.org/2000/svg" xmlns:xlink="http://www.w3.org/1999/xlink" xmlns:a="http://ns.adobe.com/AdobeSVGViewerExtensions/3.0/" version="1.1" x="0px" y="0px" viewBox="-24.222 -24.341 100 100" overflow="visible" enable-background="new -24.222 -24.341 100 100" xml:space="preserve"><path d="M46.932,4.624c-6.165-6.165-16.195-6.164-22.36,0l-7.513,7.514c-0.841,0.841-1.557,1.758-2.168,2.724  c-0.978,0.615-1.903,1.347-2.754,2.198l-7.514,7.513c-6.164,6.165-6.165,16.195,0,22.36c6.164,6.164,16.195,6.164,22.359-0.001  l7.514-7.513c0.842-0.842,1.558-1.76,2.169-2.727c0.978-0.615,1.902-1.345,2.753-2.195l7.513-7.514  C53.096,20.819,53.096,10.788,46.932,4.624z M34.497,17.058c-1.027-1.027-2.168-1.867-3.374-2.55l1.667-1.667  c1.633-1.633,4.291-1.633,5.924,0c1.634,1.634,1.634,4.292,0.001,5.925l-1.666,1.666C36.363,19.226,35.523,18.085,34.497,17.058z   M17.058,34.497c1.029,1.029,2.175,1.86,3.385,2.541l-1.677,1.677c-1.633,1.633-4.291,1.633-5.925-0.001  c-1.633-1.634-1.633-4.291,0-5.924l1.666-1.666C15.192,32.329,16.031,33.47,17.058,34.497z M24.244,44.192  c-4.654,4.654-12.227,4.654-16.881,0s-4.654-12.227,0-16.881l5.126-5.125c-0.12,1.685,0.032,3.382,0.448,5.029l-2.836,2.836  c-3.144,3.144-3.143,8.259,0,11.402c3.145,3.145,8.259,3.145,11.403,0.001l7.513-7.514c3.145-3.144,3.144-8.259,0-11.402  c-1.084-1.084-2.404-1.784-3.796-2.118c0.02-0.021,0.033-0.045,0.054-0.065l2.97-2.97c1.272,0.572,2.467,1.37,3.511,2.414  c4.654,4.654,4.654,12.227,0,16.881L24.244,44.192z M27.417,27.404c-0.784-0.15-1.533-0.518-2.14-1.125  c-0.605-0.605-0.984-1.352-1.141-2.134c0.785,0.153,1.535,0.525,2.143,1.132C26.882,25.88,27.259,26.624,27.417,27.404z   M44.192,24.244l-5.126,5.127c0.12-1.686-0.032-3.383-0.448-5.029l2.836-2.836c3.144-3.145,3.144-8.259-0.001-11.403  c-3.144-3.144-8.259-3.145-11.403-0.001l-7.513,7.514c-3.144,3.145-3.144,8.259,0.001,11.403c1.083,1.083,2.403,1.782,3.794,2.118  c-0.02,0.021-0.033,0.045-0.053,0.065l-2.964,2.965c-1.274-0.568-2.471-1.363-3.516-2.408c-4.654-4.654-4.654-12.227,0-16.881  l7.513-7.514c4.654-4.654,12.227-4.654,16.881,0S48.846,19.589,44.192,24.244z"></path></svg>